<svg xmlns="http://www.w3.org/2000/svg" viewBox="0 0 30.009 22.803"><path d="M5.476 20.803c-1.347 0-2.545-.754-3.128-1.969s-.42-2.621.423-3.672L12.3 3.297A3.454 3.454 0 0 1 15.004 2c1.057 0 2.043.472 2.705 1.296l9.528 11.866a3.442 3.442 0 0 1 .424 3.672 3.442 3.442 0 0 1-3.128 1.97H5.476Z" style="fill:#fff"/><path d="M15.004 4c.426 0 .852.183 1.146.55l9.528 11.865c.772.961.088 2.388-1.145 2.388H5.476c-1.233 0-1.917-1.427-1.145-2.388l9.528-11.866c.294-.366.72-.549 1.145-.549m0-4c-1.666 0-3.22.745-4.264 2.045L1.212 13.91c-1.33 1.656-1.585 3.874-.667 5.789s2.808 3.104 4.931 3.104h19.057c2.123 0 4.013-1.19 4.931-3.104s.663-4.133-.667-5.79L19.269 2.046A5.443 5.443 0 0 0 15.004 0Z" style="fill:#1192bc"/></svg>