<svg xmlns="http://www.w3.org/2000/svg" viewBox="0 0 30.281 36.454"><path d="M15.14 36.45c9.214.215 16.596-7.384 14.897-17.837C28.537 9.395 21.957 0 15.14 0S1.744 9.395.245 18.613c-1.7 10.453 5.682 18.052 14.896 17.837Z" style="fill:#f7941d"/><path d="M21.984 7.734a.42.42 0 0 0 .346-.665c-1.55-2.204-6.684-8.21-12.969-1.834l-.061.066c-1.718 1.528-3.26 3.76-4.173 6.336-1.941 5.477-.647 10.123 2.658 11.294 3.305 1.172 8.42-2.123 10.362-7.6.725-2.043.945-4.06.77-5.849-.08-.818.483-1.56 1.301-1.647.66-.07 1.258-.11 1.766-.101Z" style="fill:#fab413"/><path d="M6.532 29.874c-.297-.103-.517.274-.283.483 2.236 1.995 7.782 5.884 14.261 2.568 7.119-3.643 7.38-11.682 6.402-15.857-.072-.308-.52-.284-.562.03-.392 2.92-1.934 9.49-7.948 12.181-5.194 2.324-9.717 1.342-11.87.595Z" style="fill:#ca7918"/><path d="M7.257 10.709s.697-3.93 4.722-6.338 4.468 1.807 2.313 2.979-4.257.087-7.035 3.359Z" style="fill:#fcd884"/></svg>