<svg id="Layer_2" xmlns="http://www.w3.org/2000/svg" viewBox="0 0 51.908 53.182"><defs><style>.cls-1{fill:#fff}</style></defs><g id="Layer_6"><path class="cls-1" d="m29.48 6.381.601-5.328c.146-1.294 1.968-1.44 2.32-.187l1.448 5.163a13.727 13.727 0 0 0 11.678 9.934l5.328.6c1.294.147 1.44 1.969.187 2.32l-5.163 1.448a13.727 13.727 0 0 0-9.934 11.678l-.6 5.329c-.147 1.293-1.969 1.44-2.32.187l-1.448-5.163a13.727 13.727 0 0 0-11.678-9.934l-5.329-.601c-1.293-.146-1.44-1.968-.187-2.32l5.163-1.448A13.727 13.727 0 0 0 29.48 6.381ZM7.18 36.64l-.162-2.878c-.04-.698.912-.94 1.211-.308l1.233 2.605a7.375 7.375 0 0 0 7.08 4.209l2.878-.162c.698-.04.94.913.308 1.212l-2.605 1.232a7.375 7.375 0 0 0-4.21 7.081l.163 2.877c.04.698-.913.94-1.212.308l-1.232-2.604a7.375 7.375 0 0 0-7.081-4.21l-2.877.162c-.698.04-.94-.912-.308-1.212L2.97 43.72a7.375 7.375 0 0 0 4.21-7.08Z"/></g></svg>