<?xml version="1.0" encoding="utf-8"?>
<svg version="1.1" id="Disabled" xmlns="http://www.w3.org/2000/svg" xmlns:xlink="http://www.w3.org/1999/xlink"
	x="0px" y="0px" viewBox="0 0 24 24" xml:space="preserve">
<g fill="#0B93BD">
	<g>
		<path d="M12,24C5.4,24,0,18.6,0,12S5.4,0,12,0s12,5.4,12,12S18.6,24,12,24z M12,2C6.5,2,2,6.5,2,12s4.5,10,10,10s10-4.5,10-10
			S17.5,2,12,2z"/>
	</g>
	<g>
		<path d="M19.8,20.8c-0.3,0-0.5-0.1-0.7-0.3L3.5,4.9c-0.4-0.4-0.4-1,0-1.4s1-0.4,1.4,0l15.6,15.6c0.4,0.4,0.4,1,0,1.4
			C20.3,20.7,20,20.8,19.8,20.8z"/>
	</g>
</g>
</svg>